# xmcd
#
# Track frame offsets:
#	150
#	15930
#	37415
#	59786
#	83991
#	102566
#	127150
#	149648
#	170801
#	197692
#	209113
#	231491
#	260219
#	282163
#
# Disc length: 4504 seconds
# Revision: 0
# Processed by: cddbd v1.5.2PL0 Copyright (c) Steve Scherf et al.
# Submitted via: dBpowerAMP V12.0
#
DISCID=f111960e
DTITLE=Lynyrd Skynyrd - Chattanooga Choo Choo
DYEAR=2014
DGENRE=Rock-Southern
TTITLE0=I Ain't the One
TTITLE1=I'm a Country Boy
TTITLE2=The Needle and the Spoon
TTITLE3=Saturday Night Special
TTITLE4=Don't Ask Me No Questions
TTITLE5=Am I Losin'
TTITLE6=Made in the Shade
TTITLE7=Railroad Song
TTITLE8=Call Me the Breeze
TTITLE9=Sweet Home Alabama
TTITLE10=Sweet Home Alabama
TTITLE11=Woman of Mine
TTITLE12=Workin' for McA
TTITLE13=Free Bird
EXTD=
EXTT0=
EXTT1=
EXTT2=
EXTT3=
EXTT4=
EXTT5=
EXTT6=
EXTT7=
EXTT8=
EXTT9=
EXTT10=
EXTT11=
EXTT12=
EXTT13=
PLAYORDER=
